<?xml version="1.0" encoding="UTF-8"?>
<svg xmlns="http://www.w3.org/2000/svg" viewBox="0 0 1800 1600" width="1800" height="1600" font-family="'IBM Plex Sans KR', 'Noto Sans KR', sans-serif">

  <!-- Background -->
  <rect width="1800" height="1600" fill="#fafaf7"/>

  <!-- Header -->
  <text x="60" y="60" font-size="11" fill="#666" letter-spacing="1.5" font-family="'JetBrains Mono', monospace">MISSION 03 / INFORMATION ARCHITECTURE</text>
  <text x="60" y="92" font-size="26" font-weight="600" fill="#1a1a1a" letter-spacing="-0.5">OpenAI 연동형 자동매매 시스템 — IA</text>
  <text x="1740" y="60" font-size="10" fill="#666" text-anchor="end" font-family="'JetBrains Mono', monospace">DEPTH 4 / 27 SCREENS / 7 GROUPS</text>
  <text x="1740" y="76" font-size="10" fill="#666" text-anchor="end" font-family="'JetBrains Mono', monospace">작성자: 박서연</text>
  <line x1="60" y1="115" x2="1740" y2="115" stroke="#1a1a1a" stroke-width="2"/>

  <!-- Legend -->
  <g transform="translate(60, 140)">
    <rect width="1680" height="50" fill="#fff" stroke="#1a1a1a" stroke-width="1.5"/>

    <rect x="20" y="15" width="20" height="20" fill="#1a1a1a"/>
    <text x="48" y="30" font-size="11" fill="#1a1a1a">Root</text>

    <rect x="100" y="15" width="20" height="20" fill="#fff" stroke="#1a1a1a" stroke-width="1.5"/>
    <text x="128" y="30" font-size="11" fill="#1a1a1a">Group (Depth 1)</text>

    <rect x="240" y="15" width="20" height="20" fill="#fff" stroke="#1a1a1a" stroke-width="1" stroke-dasharray="4 2"/>
    <text x="268" y="30" font-size="11" fill="#1a1a1a">Page (Depth 2)</text>

    <circle cx="385" y="25" cx="385" cy="25" r="5" fill="#1a1a1a"/>
    <text x="398" y="30" font-size="11" fill="#1a1a1a">Sub-page (Depth 3-4)</text>

    <rect x="540" y="15" width="20" height="20" fill="#1a1a1a" opacity="0.1" stroke="#1a1a1a" stroke-width="1"/>
    <text x="568" y="30" font-size="11" fill="#1a1a1a">예외/빈 상태 ⚠️</text>

    <text x="720" y="30" font-size="11" fill="#666">— 실선: 정상 흐름</text>
    <text x="860" y="30" font-size="11" fill="#666">- - 점선: 예외 흐름</text>
  </g>

  <!-- ROOT NODE -->
  <g transform="translate(800, 220)">
    <rect x="0" y="0" width="200" height="60" fill="#1a1a1a"/>
    <text x="100" y="28" font-size="11" fill="#fafaf7" text-anchor="middle" font-family="'JetBrains Mono', monospace" letter-spacing="1">ROOT</text>
    <text x="100" y="46" font-size="14" fill="#fafaf7" text-anchor="middle" font-weight="600">자동매매 시스템</text>
  </g>

  <!-- Connection lines from Root to Groups -->
  <g stroke="#1a1a1a" stroke-width="1.5" fill="none">
    <!-- Root center: x=900, y=280 -->
    <!-- Group row at y=340 -->
    <path d="M 900 280 L 900 310 L 150 310 L 150 340"/>
    <path d="M 900 280 L 900 310 L 400 310 L 400 340"/>
    <path d="M 900 280 L 900 310 L 650 310 L 650 340"/>
    <path d="M 900 280 L 900 310 L 900 340"/>
    <path d="M 900 280 L 900 310 L 1150 310 L 1150 340"/>
    <path d="M 900 280 L 900 310 L 1400 310 L 1400 340"/>
    <path d="M 900 280 L 900 310 L 1650 310 L 1650 340"/>
  </g>

  <!-- ===== GROUP 1: 인증 & 온보딩 ===== -->
  <g transform="translate(60, 340)">
    <rect width="180" height="50" fill="#fff" stroke="#1a1a1a" stroke-width="1.5"/>
    <text x="90" y="22" font-size="10" fill="#666" text-anchor="middle" font-family="'JetBrains Mono', monospace" letter-spacing="1">GROUP 1</text>
    <text x="90" y="40" font-size="13" font-weight="600" text-anchor="middle">🚪 인증 &amp; 온보딩</text>
  </g>

  <!-- Group 1 children -->
  <g stroke="#1a1a1a" stroke-width="1" fill="none">
    <path d="M 150 390 L 150 410 L 100 410 L 100 430"/>
    <path d="M 150 390 L 150 410 L 100 410 L 100 480"/>
    <path d="M 150 390 L 150 410 L 100 410 L 100 530"/>
    <path d="M 150 390 L 150 410 L 100 410 L 100 580"/>
  </g>

  <g transform="translate(20, 430)">
    <rect width="160" height="40" fill="#fff" stroke="#1a1a1a" stroke-width="1" stroke-dasharray="4 2"/>
    <text x="8" y="16" font-size="9" fill="#666" font-family="'JetBrains Mono', monospace">1.1</text>
    <text x="8" y="30" font-size="11" font-weight="500">랜딩 페이지</text>
  </g>
  <g transform="translate(20, 480)">
    <rect width="160" height="40" fill="#fff" stroke="#1a1a1a" stroke-width="1" stroke-dasharray="4 2"/>
    <text x="8" y="16" font-size="9" fill="#666" font-family="'JetBrains Mono', monospace">1.2</text>
    <text x="8" y="30" font-size="11" font-weight="500">회원가입</text>
  </g>
  <g transform="translate(20, 530)">
    <rect width="160" height="40" fill="#fff" stroke="#1a1a1a" stroke-width="1" stroke-dasharray="4 2"/>
    <text x="8" y="16" font-size="9" fill="#666" font-family="'JetBrains Mono', monospace">1.3</text>
    <text x="8" y="30" font-size="11" font-weight="500">로그인 / PW찾기</text>
  </g>
  <g transform="translate(20, 580)">
    <rect width="160" height="40" fill="#fff" stroke="#1a1a1a" stroke-width="1" stroke-dasharray="4 2"/>
    <text x="8" y="16" font-size="9" fill="#666" font-family="'JetBrains Mono', monospace">1.4</text>
    <text x="8" y="30" font-size="11" font-weight="500">온보딩 튜토리얼</text>
  </g>

  <!-- Group 1 - 1.1 children (Depth 4) -->
  <g stroke="#1a1a1a" stroke-width="0.8" fill="none">
    <path d="M 180 450 L 200 450 L 200 645 L 220 645"/>
    <path d="M 180 450 L 200 450 L 200 670 L 220 670"/>
    <path d="M 180 500 L 210 500 L 210 700 L 220 700"/>
    <path d="M 180 500 L 210 500 L 210 725 L 220 725"/>
  </g>
  <g transform="translate(220, 635)">
    <circle cx="0" cy="10" r="4" fill="#1a1a1a"/>
    <text x="10" y="14" font-size="10" fill="#1a1a1a">1.1.1 Hero · 가치 제안</text>
  </g>
  <g transform="translate(220, 660)">
    <circle cx="0" cy="10" r="4" fill="#1a1a1a"/>
    <text x="10" y="14" font-size="10" fill="#1a1a1a">1.1.2 요금제 안내</text>
  </g>
  <g transform="translate(220, 690)">
    <circle cx="0" cy="10" r="4" fill="#1a1a1a"/>
    <text x="10" y="14" font-size="10" fill="#1a1a1a">1.2.1 이메일 가입 폼</text>
  </g>
  <g transform="translate(220, 715)">
    <circle cx="0" cy="10" r="4" fill="#1a1a1a"/>
    <text x="10" y="14" font-size="10" fill="#1a1a1a">1.2.2 이메일 인증</text>
  </g>

  <!-- ===== GROUP 2: 대시보드 ===== -->
  <g transform="translate(310, 340)">
    <rect width="180" height="50" fill="#fff" stroke="#1a1a1a" stroke-width="1.5"/>
    <text x="90" y="22" font-size="10" fill="#666" text-anchor="middle" font-family="'JetBrains Mono', monospace" letter-spacing="1">GROUP 2 / HUB</text>
    <text x="90" y="40" font-size="13" font-weight="600" text-anchor="middle">📊 대시보드</text>
  </g>

  <g stroke="#1a1a1a" stroke-width="1" fill="none">
    <path d="M 400 390 L 400 410 L 350 410 L 350 430"/>
    <path d="M 400 390 L 400 410 L 350 410 L 350 480"/>
  </g>

  <g transform="translate(270, 430)">
    <rect width="160" height="40" fill="#fff" stroke="#1a1a1a" stroke-width="1" stroke-dasharray="4 2"/>
    <text x="8" y="16" font-size="9" fill="#666" font-family="'JetBrains Mono', monospace">2.1</text>
    <text x="8" y="30" font-size="11" font-weight="500">통합 대시보드</text>
  </g>
  <!-- Empty state (예외/빈 상태) -->
  <g transform="translate(270, 480)">
    <rect width="160" height="40" fill="#1a1a1a" fill-opacity="0.1" stroke="#1a1a1a" stroke-width="1" stroke-dasharray="4 2"/>
    <text x="8" y="16" font-size="9" fill="#666" font-family="'JetBrains Mono', monospace">2.2 ⚠️</text>
    <text x="8" y="30" font-size="11" font-weight="500">빈 상태 안내</text>
  </g>

  <g stroke="#1a1a1a" stroke-width="0.8" fill="none">
    <path d="M 430 450 L 450 450 L 450 525 L 470 525"/>
    <path d="M 430 450 L 450 450 L 450 550 L 470 550"/>
    <path d="M 430 450 L 450 450 L 450 575 L 470 575"/>
  </g>
  <g transform="translate(470, 515)">
    <circle cx="0" cy="10" r="4" fill="#1a1a1a"/>
    <text x="10" y="14" font-size="10" fill="#1a1a1a">2.1.1 자산 위젯</text>
  </g>
  <g transform="translate(470, 540)">
    <circle cx="0" cy="10" r="4" fill="#1a1a1a"/>
    <text x="10" y="14" font-size="10" fill="#1a1a1a">2.1.2 운영중 전략</text>
  </g>
  <g transform="translate(470, 565)">
    <circle cx="0" cy="10" r="4" fill="#1a1a1a"/>
    <text x="10" y="14" font-size="10" fill="#1a1a1a">2.1.3 알림 피드</text>
  </g>

  <!-- ===== GROUP 3: 거래소 연동 ===== -->
  <g transform="translate(560, 340)">
    <rect width="180" height="50" fill="#fff" stroke="#1a1a1a" stroke-width="1.5"/>
    <text x="90" y="22" font-size="10" fill="#666" text-anchor="middle" font-family="'JetBrains Mono', monospace" letter-spacing="1">GROUP 3</text>
    <text x="90" y="40" font-size="13" font-weight="600" text-anchor="middle">🔗 거래소 연동</text>
  </g>

  <g stroke="#1a1a1a" stroke-width="1" fill="none">
    <path d="M 650 390 L 650 410 L 600 410 L 600 430"/>
    <path d="M 650 390 L 650 410 L 600 410 L 600 480"/>
    <path d="M 650 390 L 650 410 L 600 410 L 600 530"/>
  </g>

  <g transform="translate(520, 430)">
    <rect width="160" height="40" fill="#fff" stroke="#1a1a1a" stroke-width="1" stroke-dasharray="4 2"/>
    <text x="8" y="16" font-size="9" fill="#666" font-family="'JetBrains Mono', monospace">3.1</text>
    <text x="8" y="30" font-size="11" font-weight="500">연동된 거래소 목록</text>
  </g>
  <g transform="translate(520, 480)">
    <rect width="160" height="40" fill="#fff" stroke="#1a1a1a" stroke-width="1" stroke-dasharray="4 2"/>
    <text x="8" y="16" font-size="9" fill="#666" font-family="'JetBrains Mono', monospace">3.2</text>
    <text x="8" y="30" font-size="11" font-weight="500">신규 거래소 추가</text>
  </g>
  <g transform="translate(520, 530)">
    <rect width="160" height="40" fill="#fff" stroke="#1a1a1a" stroke-width="1" stroke-dasharray="4 2"/>
    <text x="8" y="16" font-size="9" fill="#666" font-family="'JetBrains Mono', monospace">3.3</text>
    <text x="8" y="30" font-size="11" font-weight="500">키 관리</text>
  </g>

  <g stroke="#1a1a1a" stroke-width="0.8" fill="none">
    <path d="M 680 500 L 700 500 L 700 595 L 720 595"/>
    <path d="M 680 500 L 700 500 L 700 620 L 720 620"/>
    <path d="M 680 500 L 700 500 L 700 645 L 720 645"/>
  </g>
  <g transform="translate(720, 585)">
    <circle cx="0" cy="10" r="4" fill="#1a1a1a"/>
    <text x="10" y="14" font-size="10" fill="#1a1a1a">3.2.1 거래소 선택</text>
  </g>
  <g transform="translate(720, 610)">
    <circle cx="0" cy="10" r="4" fill="#1a1a1a"/>
    <text x="10" y="14" font-size="10" fill="#1a1a1a">3.2.2 API 키 입력</text>
  </g>
  <g transform="translate(720, 635)">
    <circle cx="0" cy="10" r="4" fill="#1a1a1a"/>
    <text x="10" y="14" font-size="10" fill="#1a1a1a">3.2.3 권한 검증</text>
  </g>

  <!-- ===== GROUP 4: 전략 스튜디오 (CORE) ===== -->
  <g transform="translate(810, 340)">
    <rect width="180" height="50" fill="#fff" stroke="#1a1a1a" stroke-width="2"/>
    <text x="90" y="22" font-size="10" fill="#666" text-anchor="middle" font-family="'JetBrains Mono', monospace" letter-spacing="1">GROUP 4 / CORE</text>
    <text x="90" y="40" font-size="13" font-weight="600" text-anchor="middle">🧠 전략 스튜디오</text>
  </g>

  <g stroke="#1a1a1a" stroke-width="1" fill="none">
    <path d="M 900 390 L 900 410 L 850 410 L 850 430"/>
    <path d="M 900 390 L 900 410 L 850 410 L 850 480"/>
    <path d="M 900 390 L 900 410 L 850 410 L 850 530"/>
    <path d="M 900 390 L 900 410 L 850 410 L 850 580"/>
    <path d="M 900 390 L 900 410 L 850 410 L 850 630"/>
  </g>

  <g transform="translate(770, 430)">
    <rect width="160" height="40" fill="#fff" stroke="#1a1a1a" stroke-width="1" stroke-dasharray="4 2"/>
    <text x="8" y="16" font-size="9" fill="#666" font-family="'JetBrains Mono', monospace">4.1</text>
    <text x="8" y="30" font-size="11" font-weight="500">내 전략 라이브러리</text>
  </g>
  <g transform="translate(770, 480)">
    <rect width="160" height="40" fill="#fff" stroke="#1a1a1a" stroke-width="1" stroke-dasharray="4 2"/>
    <text x="8" y="16" font-size="9" fill="#666" font-family="'JetBrains Mono', monospace">4.2 ★</text>
    <text x="8" y="30" font-size="11" font-weight="500">GPT 전략 생성</text>
  </g>
  <g transform="translate(770, 530)">
    <rect width="160" height="40" fill="#fff" stroke="#1a1a1a" stroke-width="1" stroke-dasharray="4 2"/>
    <text x="8" y="16" font-size="9" fill="#666" font-family="'JetBrains Mono', monospace">4.3</text>
    <text x="8" y="30" font-size="11" font-weight="500">백테스팅</text>
  </g>
  <g transform="translate(770, 580)">
    <rect width="160" height="40" fill="#fff" stroke="#1a1a1a" stroke-width="1" stroke-dasharray="4 2"/>
    <text x="8" y="16" font-size="9" fill="#666" font-family="'JetBrains Mono', monospace">4.4</text>
    <text x="8" y="30" font-size="11" font-weight="500">전략 배포</text>
  </g>
  <g transform="translate(770, 630)">
    <rect width="160" height="40" fill="#fff" stroke="#1a1a1a" stroke-width="1" stroke-dasharray="4 2"/>
    <text x="8" y="16" font-size="9" fill="#666" font-family="'JetBrains Mono', monospace">4.5</text>
    <text x="8" y="30" font-size="11" font-weight="500">전략 마켓플레이스</text>
  </g>

  <!-- 4.2 children (3 sub-pages) -->
  <g stroke="#1a1a1a" stroke-width="0.8" fill="none">
    <path d="M 930 500 L 950 500 L 950 715 L 970 715"/>
    <path d="M 930 500 L 950 500 L 950 740 L 970 740"/>
    <path d="M 930 500 L 950 500 L 950 765 L 970 765"/>
    <path d="M 930 550 L 960 550 L 960 800 L 970 800"/>
    <path d="M 930 550 L 960 550 L 960 825 L 970 825"/>
  </g>
  <g transform="translate(970, 705)">
    <circle cx="0" cy="10" r="4" fill="#1a1a1a"/>
    <text x="10" y="14" font-size="10" fill="#1a1a1a">4.2.1 자연어 입력 (채팅)</text>
  </g>
  <g transform="translate(970, 730)">
    <circle cx="0" cy="10" r="4" fill="#1a1a1a"/>
    <text x="10" y="14" font-size="10" fill="#1a1a1a">4.2.2 GPT 추천 결과</text>
  </g>
  <g transform="translate(970, 755)">
    <circle cx="0" cy="10" r="4" fill="#1a1a1a"/>
    <text x="10" y="14" font-size="10" fill="#1a1a1a">4.2.3 No-Code 블록 편집기</text>
  </g>
  <g transform="translate(970, 790)">
    <circle cx="0" cy="10" r="4" fill="#1a1a1a"/>
    <text x="10" y="14" font-size="10" fill="#1a1a1a">4.3.1 백테스팅 설정</text>
  </g>
  <g transform="translate(970, 815)">
    <circle cx="0" cy="10" r="4" fill="#1a1a1a"/>
    <text x="10" y="14" font-size="10" fill="#1a1a1a">4.3.2 결과 리포트</text>
  </g>

  <!-- ===== GROUP 5: 거래 & 리포트 ===== -->
  <g transform="translate(1060, 340)">
    <rect width="180" height="50" fill="#fff" stroke="#1a1a1a" stroke-width="1.5"/>
    <text x="90" y="22" font-size="10" fill="#666" text-anchor="middle" font-family="'JetBrains Mono', monospace" letter-spacing="1">GROUP 5</text>
    <text x="90" y="40" font-size="13" font-weight="600" text-anchor="middle">📈 거래 &amp; 리포트</text>
  </g>

  <g stroke="#1a1a1a" stroke-width="1" fill="none">
    <path d="M 1150 390 L 1150 410 L 1100 410 L 1100 430"/>
    <path d="M 1150 390 L 1150 410 L 1100 410 L 1100 480"/>
    <path d="M 1150 390 L 1150 410 L 1100 410 L 1100 530"/>
    <path d="M 1150 390 L 1150 410 L 1100 410 L 1100 580"/>
  </g>

  <g transform="translate(1020, 430)">
    <rect width="160" height="40" fill="#fff" stroke="#1a1a1a" stroke-width="1" stroke-dasharray="4 2"/>
    <text x="8" y="16" font-size="9" fill="#666" font-family="'JetBrains Mono', monospace">5.1</text>
    <text x="8" y="30" font-size="11" font-weight="500">실시간 거래 내역</text>
  </g>
  <g transform="translate(1020, 480)">
    <rect width="160" height="40" fill="#fff" stroke="#1a1a1a" stroke-width="1" stroke-dasharray="4 2"/>
    <text x="8" y="16" font-size="9" fill="#666" font-family="'JetBrains Mono', monospace">5.2</text>
    <text x="8" y="30" font-size="11" font-weight="500">수익률 분석</text>
  </g>
  <g transform="translate(1020, 530)">
    <rect width="160" height="40" fill="#fff" stroke="#1a1a1a" stroke-width="1" stroke-dasharray="4 2"/>
    <text x="8" y="16" font-size="9" fill="#666" font-family="'JetBrains Mono', monospace">5.3</text>
    <text x="8" y="30" font-size="11" font-weight="500">RL 엔진 모니터</text>
  </g>
  <g transform="translate(1020, 580)">
    <rect width="160" height="40" fill="#fff" stroke="#1a1a1a" stroke-width="1" stroke-dasharray="4 2"/>
    <text x="8" y="16" font-size="9" fill="#666" font-family="'JetBrains Mono', monospace">5.4</text>
    <text x="8" y="30" font-size="11" font-weight="500">세금 리포트</text>
  </g>

  <g stroke="#1a1a1a" stroke-width="0.8" fill="none">
    <path d="M 1180 500 L 1200 500 L 1200 645 L 1220 645"/>
    <path d="M 1180 500 L 1200 500 L 1200 670 L 1220 670"/>
  </g>
  <g transform="translate(1220, 635)">
    <circle cx="0" cy="10" r="4" fill="#1a1a1a"/>
    <text x="10" y="14" font-size="10" fill="#1a1a1a">5.2.1 일/주/월별 차트</text>
  </g>
  <g transform="translate(1220, 660)">
    <circle cx="0" cy="10" r="4" fill="#1a1a1a"/>
    <text x="10" y="14" font-size="10" fill="#1a1a1a">5.2.2 전략별 성과 비교</text>
  </g>

  <!-- ===== GROUP 6: 설정 ===== -->
  <g transform="translate(1310, 340)">
    <rect width="180" height="50" fill="#fff" stroke="#1a1a1a" stroke-width="1.5"/>
    <text x="90" y="22" font-size="10" fill="#666" text-anchor="middle" font-family="'JetBrains Mono', monospace" letter-spacing="1">GROUP 6</text>
    <text x="90" y="40" font-size="13" font-weight="600" text-anchor="middle">⚙️ 설정</text>
  </g>

  <g stroke="#1a1a1a" stroke-width="1" fill="none">
    <path d="M 1400 390 L 1400 410 L 1350 410 L 1350 430"/>
    <path d="M 1400 390 L 1400 410 L 1350 410 L 1350 480"/>
    <path d="M 1400 390 L 1400 410 L 1350 410 L 1350 530"/>
    <path d="M 1400 390 L 1400 410 L 1350 410 L 1350 580"/>
  </g>

  <g transform="translate(1270, 430)">
    <rect width="160" height="40" fill="#fff" stroke="#1a1a1a" stroke-width="1" stroke-dasharray="4 2"/>
    <text x="8" y="16" font-size="9" fill="#666" font-family="'JetBrains Mono', monospace">6.1</text>
    <text x="8" y="30" font-size="11" font-weight="500">프로필 관리</text>
  </g>
  <g transform="translate(1270, 480)">
    <rect width="160" height="40" fill="#fff" stroke="#1a1a1a" stroke-width="1" stroke-dasharray="4 2"/>
    <text x="8" y="16" font-size="9" fill="#666" font-family="'JetBrains Mono', monospace">6.2</text>
    <text x="8" y="30" font-size="11" font-weight="500">알림 설정</text>
  </g>
  <g transform="translate(1270, 530)">
    <rect width="160" height="40" fill="#fff" stroke="#1a1a1a" stroke-width="1" stroke-dasharray="4 2"/>
    <text x="8" y="16" font-size="9" fill="#666" font-family="'JetBrains Mono', monospace">6.3</text>
    <text x="8" y="30" font-size="11" font-weight="500">보안 (2FA)</text>
  </g>
  <g transform="translate(1270, 580)">
    <rect width="160" height="40" fill="#fff" stroke="#1a1a1a" stroke-width="1" stroke-dasharray="4 2"/>
    <text x="8" y="16" font-size="9" fill="#666" font-family="'JetBrains Mono', monospace">6.4</text>
    <text x="8" y="30" font-size="11" font-weight="500">결제 / 구독</text>
  </g>

  <!-- ===== GROUP 7: 지원 ===== -->
  <g transform="translate(1560, 340)">
    <rect width="180" height="50" fill="#fff" stroke="#1a1a1a" stroke-width="1.5"/>
    <text x="90" y="22" font-size="10" fill="#666" text-anchor="middle" font-family="'JetBrains Mono', monospace" letter-spacing="1">GROUP 7</text>
    <text x="90" y="40" font-size="13" font-weight="600" text-anchor="middle">💬 지원</text>
  </g>

  <g stroke="#1a1a1a" stroke-width="1" fill="none">
    <path d="M 1650 390 L 1650 410 L 1600 410 L 1600 430"/>
    <path d="M 1650 390 L 1650 410 L 1600 410 L 1600 480"/>
    <path d="M 1650 390 L 1650 410 L 1600 410 L 1600 530"/>
  </g>

  <g transform="translate(1520, 430)">
    <rect width="160" height="40" fill="#fff" stroke="#1a1a1a" stroke-width="1" stroke-dasharray="4 2"/>
    <text x="8" y="16" font-size="9" fill="#666" font-family="'JetBrains Mono', monospace">7.1</text>
    <text x="8" y="30" font-size="11" font-weight="500">FAQ</text>
  </g>
  <g transform="translate(1520, 480)">
    <rect width="160" height="40" fill="#fff" stroke="#1a1a1a" stroke-width="1" stroke-dasharray="4 2"/>
    <text x="8" y="16" font-size="9" fill="#666" font-family="'JetBrains Mono', monospace">7.2</text>
    <text x="8" y="30" font-size="11" font-weight="500">1:1 문의</text>
  </g>
  <g transform="translate(1520, 530)">
    <rect width="160" height="40" fill="#fff" stroke="#1a1a1a" stroke-width="1" stroke-dasharray="4 2"/>
    <text x="8" y="16" font-size="9" fill="#666" font-family="'JetBrains Mono', monospace">7.3</text>
    <text x="8" y="30" font-size="11" font-weight="500">공지사항</text>
  </g>

  <!-- ===== EXCEPTION SECTION ===== -->
  <line x1="60" y1="1320" x2="1740" y2="1320" stroke="#1a1a1a" stroke-width="2" stroke-dasharray="6 4"/>

  <text x="60" y="1360" font-size="11" fill="#666" letter-spacing="1.5" font-family="'JetBrains Mono', monospace">⚠️ EXCEPTION SCREENS / SYSTEM STATES</text>
  <text x="60" y="1382" font-size="16" font-weight="600" fill="#1a1a1a">예외 화면 (Unhappy Path)</text>

  <!-- Exception 1: 404 -->
  <g transform="translate(60, 1410)">
    <rect width="380" height="120" fill="#1a1a1a" fill-opacity="0.05" stroke="#1a1a1a" stroke-width="1.5" stroke-dasharray="6 3"/>
    <text x="20" y="28" font-size="10" fill="#666" font-family="'JetBrains Mono', monospace">E.1 / NOT FOUND</text>
    <text x="20" y="52" font-size="14" font-weight="600">404 페이지</text>
    <line x1="20" y1="62" x2="360" y2="62" stroke="#1a1a1a" stroke-width="0.5" stroke-dasharray="2 2"/>
    <text x="20" y="82" font-size="11" fill="#333">• 잘못된 URL 진입 시 표시</text>
    <text x="20" y="100" font-size="11" fill="#333">• 홈/이전 페이지로 복귀 CTA</text>
  </g>

  <!-- Exception 2: 500 -->
  <g transform="translate(480, 1410)">
    <rect width="380" height="120" fill="#1a1a1a" fill-opacity="0.05" stroke="#1a1a1a" stroke-width="1.5" stroke-dasharray="6 3"/>
    <text x="20" y="28" font-size="10" fill="#666" font-family="'JetBrains Mono', monospace">E.2 / SERVER ERROR</text>
    <text x="20" y="52" font-size="14" font-weight="600">500 서버 오류</text>
    <line x1="20" y1="62" x2="360" y2="62" stroke="#1a1a1a" stroke-width="0.5" stroke-dasharray="2 2"/>
    <text x="20" y="82" font-size="11" fill="#333">• 서버 응답 오류 시 표시</text>
    <text x="20" y="100" font-size="11" fill="#333">• 자동 재시도 + 고객지원 안내</text>
  </g>

  <!-- Exception 3: API 연동 실패 (CUT 5와 연결) -->
  <g transform="translate(900, 1410)">
    <rect width="380" height="120" fill="#1a1a1a" fill-opacity="0.1" stroke="#1a1a1a" stroke-width="2" stroke-dasharray="6 3"/>
    <text x="20" y="28" font-size="10" fill="#666" font-family="'JetBrains Mono', monospace">E.3 / API FAILURE ★ CUT 5</text>
    <text x="20" y="52" font-size="14" font-weight="600">API 연동 실패</text>
    <line x1="20" y1="62" x2="360" y2="62" stroke="#1a1a1a" stroke-width="0.5" stroke-dasharray="2 2"/>
    <text x="20" y="82" font-size="11" fill="#333">• 거래소 API 일시 장애 감지</text>
    <text x="20" y="100" font-size="11" fill="#333">• 자동 재연결 + RL 엔진 자동 대응</text>
  </g>

  <!-- Exception 4: Offline -->
  <g transform="translate(1320, 1410)">
    <rect width="380" height="120" fill="#1a1a1a" fill-opacity="0.05" stroke="#1a1a1a" stroke-width="1.5" stroke-dasharray="6 3"/>
    <text x="20" y="28" font-size="10" fill="#666" font-family="'JetBrains Mono', monospace">E.4 / OFFLINE</text>
    <text x="20" y="52" font-size="14" font-weight="600">네트워크 오프라인</text>
    <line x1="20" y1="62" x2="360" y2="62" stroke="#1a1a1a" stroke-width="0.5" stroke-dasharray="2 2"/>
    <text x="20" y="82" font-size="11" fill="#333">• 사용자 네트워크 연결 끊김</text>
    <text x="20" y="100" font-size="11" fill="#333">• 캐시된 마지막 데이터 표시</text>
  </g>

  <!-- ===== USER FLOW MAPPING (시나리오 ↔ IA 연결) ===== -->
  <line x1="60" y1="900" x2="1740" y2="900" stroke="#cccccc" stroke-width="1"/>

  <text x="60" y="940" font-size="11" fill="#666" letter-spacing="1.5" font-family="'JetBrains Mono', monospace">USER FLOW / 시나리오 ↔ IA 매핑</text>
  <text x="60" y="962" font-size="16" font-weight="600" fill="#1a1a1a">박서연의 동선 (Mission 02 시나리오 기반)</text>

  <!-- Flow nodes -->
  <g transform="translate(60, 990)">
    <!-- CUT 2 → Group 1 -->
    <rect width="220" height="80" fill="#fff" stroke="#1a1a1a" stroke-width="1.5"/>
    <text x="15" y="22" font-size="10" fill="#666" font-family="'JetBrains Mono', monospace">CUT 2 — 계기</text>
    <text x="15" y="42" font-size="13" font-weight="600">📍 Group 1 진입</text>
    <line x1="15" y1="50" x2="205" y2="50" stroke="#1a1a1a" stroke-width="0.5" stroke-dasharray="2 2"/>
    <text x="15" y="65" font-size="10" fill="#333">1.1 → 1.2 → 1.3 → 1.4</text>
  </g>

  <g transform="translate(310, 990)">
    <rect width="220" height="80" fill="#fff" stroke="#1a1a1a" stroke-width="1.5"/>
    <text x="15" y="22" font-size="10" fill="#666" font-family="'JetBrains Mono', monospace">CUT 3 — 행동 1</text>
    <text x="15" y="42" font-size="13" font-weight="600">📍 Group 3 (거래소)</text>
    <line x1="15" y1="50" x2="205" y2="50" stroke="#1a1a1a" stroke-width="0.5" stroke-dasharray="2 2"/>
    <text x="15" y="65" font-size="10" fill="#333">3.2.1 → 3.2.2 → 3.2.3</text>
  </g>

  <g transform="translate(560, 990)">
    <rect width="220" height="80" fill="#fff" stroke="#1a1a1a" stroke-width="1.5"/>
    <text x="15" y="22" font-size="10" fill="#666" font-family="'JetBrains Mono', monospace">CUT 4 — 행동 2</text>
    <text x="15" y="42" font-size="13" font-weight="600">📍 Group 4 (전략)</text>
    <line x1="15" y1="50" x2="205" y2="50" stroke="#1a1a1a" stroke-width="0.5" stroke-dasharray="2 2"/>
    <text x="15" y="65" font-size="10" fill="#333">4.2.1 → 4.2.3 → 4.3 → 4.4</text>
  </g>

  <g transform="translate(810, 990)">
    <rect width="220" height="80" fill="#1a1a1a" fill-opacity="0.1" stroke="#1a1a1a" stroke-width="1.5" stroke-dasharray="4 2"/>
    <text x="15" y="22" font-size="10" fill="#666" font-family="'JetBrains Mono', monospace">CUT 5 — 예외 ⚠️</text>
    <text x="15" y="42" font-size="13" font-weight="600">📍 E.3 (API 실패)</text>
    <line x1="15" y1="50" x2="205" y2="50" stroke="#1a1a1a" stroke-width="0.5" stroke-dasharray="2 2"/>
    <text x="15" y="65" font-size="10" fill="#333">자동 복구 → 5.3 RL 모니터</text>
  </g>

  <g transform="translate(1060, 990)">
    <rect width="220" height="80" fill="#fff" stroke="#1a1a1a" stroke-width="1.5"/>
    <text x="15" y="22" font-size="10" fill="#666" font-family="'JetBrains Mono', monospace">CUT 6 — 결과</text>
    <text x="15" y="42" font-size="13" font-weight="600">📍 Group 2 + 5</text>
    <line x1="15" y1="50" x2="205" y2="50" stroke="#1a1a1a" stroke-width="0.5" stroke-dasharray="2 2"/>
    <text x="15" y="65" font-size="10" fill="#333">2.1 → 5.1 → 5.2.2</text>
  </g>

  <!-- Arrows between flow nodes -->
  <g stroke="#1a1a1a" stroke-width="1.5" fill="none">
    <line x1="280" y1="1030" x2="305" y2="1030"/>
    <polygon points="303,1025 313,1030 303,1035" fill="#1a1a1a" stroke="none"/>

    <line x1="530" y1="1030" x2="555" y2="1030"/>
    <polygon points="553,1025 563,1030 553,1035" fill="#1a1a1a" stroke="none"/>

    <line x1="780" y1="1030" x2="805" y2="1030"/>
    <polygon points="803,1025 813,1030 803,1035" fill="#1a1a1a" stroke="none"/>

    <line x1="1030" y1="1030" x2="1055" y2="1030" stroke-dasharray="3 2"/>
    <polygon points="1053,1025 1063,1030 1053,1035" fill="#1a1a1a" stroke="none"/>
  </g>

  <!-- Stats Box -->
  <g transform="translate(1320, 990)">
    <rect width="380" height="280" fill="#1a1a1a"/>
    <text x="20" y="32" font-size="10" fill="#fafaf7" font-family="'JetBrains Mono', monospace" letter-spacing="1.5">IA SUMMARY</text>
    <line x1="20" y1="42" x2="360" y2="42" stroke="#fafaf7" stroke-width="0.5"/>

    <text x="20" y="72" font-size="11" fill="#fafaf7" font-family="'JetBrains Mono', monospace">DEPTH</text>
    <text x="360" y="72" font-size="22" fill="#fafaf7" font-weight="700" text-anchor="end">4</text>

    <text x="20" y="108" font-size="11" fill="#fafaf7" font-family="'JetBrains Mono', monospace">TOTAL SCREENS</text>
    <text x="360" y="108" font-size="22" fill="#fafaf7" font-weight="700" text-anchor="end">27</text>

    <text x="20" y="144" font-size="11" fill="#fafaf7" font-family="'JetBrains Mono', monospace">GROUPS</text>
    <text x="360" y="144" font-size="22" fill="#fafaf7" font-weight="700" text-anchor="end">7</text>

    <text x="20" y="180" font-size="11" fill="#fafaf7" font-family="'JetBrains Mono', monospace">EXCEPTION SCREENS</text>
    <text x="360" y="180" font-size="22" fill="#fafaf7" font-weight="700" text-anchor="end">4</text>

    <line x1="20" y1="200" x2="360" y2="200" stroke="#fafaf7" stroke-width="0.5"/>

    <text x="20" y="226" font-size="10" fill="#fafaf7" font-family="'JetBrains Mono', monospace">CHECKLIST</text>
    <text x="20" y="246" font-size="11" fill="#fafaf7">✓ 3+ Depth · ✓ 10+ Screens</text>
    <text x="20" y="262" font-size="11" fill="#fafaf7">✓ Exception · ✓ Grouping</text>
  </g>

  <!-- Footer -->
  <line x1="60" y1="1560" x2="1740" y2="1560" stroke="#1a1a1a" stroke-width="1"/>
  <text x="60" y="1585" font-size="10" fill="#666" font-family="'JetBrains Mono', monospace" letter-spacing="1">INFORMATION ARCHITECTURE — OPENAI 자동매매 시스템</text>
  <text x="1740" y="1585" font-size="10" fill="#666" text-anchor="end" font-family="'JetBrains Mono', monospace" letter-spacing="1">작성자: 박서연 / PBL WK03</text>

</svg>
