<?xml version="1.0" encoding="UTF-8"?>
<svg xmlns="http://www.w3.org/2000/svg" viewBox="0 0 1800 1200" width="1800" height="1200" font-family="'Noto Sans CJK KR', sans-serif">

  <rect width="1800" height="1200" fill="#fafaf7"/>

  <!-- Header -->
  <text x="60" y="60" font-size="11" fill="#666" letter-spacing="1.5" font-family="'Noto Sans CJK KR', monospace">MISSION 06 / WIREFRAME REVIEW MATRIX</text>
  <text x="60" y="92" font-size="26" font-weight="600" fill="#1a1a1a" letter-spacing="-0.5">와이어프레임 ↔ IA · 플로우 · 명세서 대조 매트릭스</text>
  <text x="1740" y="60" font-size="10" fill="#666" text-anchor="end" font-family="'Noto Sans CJK KR', monospace">REVIEW REPORT</text>
  <text x="1740" y="76" font-size="10" fill="#666" text-anchor="end" font-family="'Noto Sans CJK KR', monospace">작성자: 이제혁</text>
  <line x1="60" y1="115" x2="1740" y2="115" stroke="#1a1a1a" stroke-width="2"/>

  <!-- Legend -->
  <g transform="translate(60, 140)">
    <rect width="1680" height="50" fill="#fff" stroke="#1a1a1a" stroke-width="1.5"/>

    <rect x="20" y="15" width="20" height="20" fill="#1a1a1a"/>
    <text x="48" y="30" font-size="11" fill="#1a1a1a">완전 일치 (OK)</text>

    <rect x="180" y="15" width="20" height="20" fill="#1a1a1a" fill-opacity="0.4"/>
    <text x="208" y="30" font-size="11" fill="#1a1a1a">부분 일치 (개선 필요)</text>

    <rect x="380" y="15" width="20" height="20" fill="#fff" stroke="#1a1a1a" stroke-width="2"/>
    <text x="408" y="30" font-size="11" fill="#1a1a1a">미흡 / 누락</text>

    <text x="580" y="30" font-size="11" fill="#666">— 비대상 (해당 화면에 없음)</text>

    <text x="1380" y="30" font-size="11" fill="#1a1a1a" font-weight="600">총 점검: 6 화면 × 3 기준 = 18 셀</text>
  </g>

  <!-- Matrix table -->
  <g transform="translate(60, 220)">

    <!-- Header row -->
    <rect x="0" y="0" width="280" height="60" fill="#1a1a1a"/>
    <text x="140" y="36" font-size="13" fill="#fafaf7" text-anchor="middle" font-weight="600">와이어프레임 화면</text>

    <rect x="280" y="0" width="350" height="60" fill="#1a1a1a"/>
    <text x="455" y="32" font-size="13" fill="#fafaf7" text-anchor="middle" font-weight="600">IA 일치 (M03)</text>
    <text x="455" y="48" font-size="10" fill="#ccc" text-anchor="middle">노드 매핑 / 정보 구조</text>

    <rect x="630" y="0" width="350" height="60" fill="#1a1a1a"/>
    <text x="805" y="32" font-size="13" fill="#fafaf7" text-anchor="middle" font-weight="600">플로우 호환 (M04)</text>
    <text x="805" y="48" font-size="10" fill="#ccc" text-anchor="middle">화면 이동 가능성</text>

    <rect x="980" y="0" width="350" height="60" fill="#1a1a1a"/>
    <text x="1155" y="32" font-size="13" fill="#fafaf7" text-anchor="middle" font-weight="600">명세서 반영 (M05)</text>
    <text x="1155" y="48" font-size="10" fill="#ccc" text-anchor="middle">UI 요소 + Trigger/Action</text>

    <rect x="1330" y="0" width="350" height="60" fill="#1a1a1a"/>
    <text x="1505" y="32" font-size="13" fill="#fafaf7" text-anchor="middle" font-weight="600">종합 평가</text>
    <text x="1505" y="48" font-size="10" fill="#ccc" text-anchor="middle">우선 개선 항목</text>

    <!-- W1: 랜딩 -->
    <rect x="0" y="60" width="280" height="120" fill="#fff" stroke="#1a1a1a" stroke-width="1"/>
    <text x="20" y="90" font-size="13" font-weight="600" fill="#1a1a1a">W1 랜딩 페이지</text>
    <text x="20" y="110" font-size="10" fill="#666">IA: 1.1.1, 1.1.2</text>
    <text x="20" y="128" font-size="10" fill="#666">화면 ID: S-LANDING</text>
    <text x="20" y="150" font-size="10" fill="#666">P1</text>

    <rect x="280" y="60" width="350" height="120" fill="#1a1a1a" stroke="#1a1a1a"/>
    <text x="295" y="90" font-size="11" fill="#fafaf7" font-weight="600">✓ 완전 일치</text>
    <text x="295" y="110" font-size="10" fill="#fafaf7">• Hero (1.1.1) ✓</text>
    <text x="295" y="128" font-size="10" fill="#fafaf7">• Feature 카드 ✓</text>
    <text x="295" y="146" font-size="10" fill="#fafaf7">• "요금제" 링크 → 1.1.2 ✓</text>
    <text x="295" y="164" font-size="10" fill="#fafaf7">• "시작하기" → 1.2 ✓</text>

    <rect x="630" y="60" width="350" height="120" fill="#1a1a1a" stroke="#1a1a1a"/>
    <text x="645" y="90" font-size="11" fill="#fafaf7" font-weight="600">✓ 완전 일치</text>
    <text x="645" y="110" font-size="10" fill="#fafaf7">• Flow 1 진입점 명확 ✓</text>
    <text x="645" y="128" font-size="10" fill="#fafaf7">• 단일 CTA로 동선 단순화 ✓</text>
    <text x="645" y="146" font-size="10" fill="#fafaf7">• 로그인/가입 명확한 구분 ✓</text>

    <rect x="980" y="60" width="350" height="120" fill="#1a1a1a" fill-opacity="0.4" stroke="#1a1a1a"/>
    <text x="995" y="90" font-size="11" fill="#1a1a1a" font-weight="600">▲ 부분 일치</text>
    <text x="995" y="110" font-size="10" fill="#333">• L-001~L-008 모두 명세 ✓</text>
    <text x="995" y="128" font-size="10" fill="#333">• 사회적 증명(L-009) 누락</text>
    <text x="995" y="146" font-size="10" fill="#333">• 데모 영상 자리(L-010) 누락</text>

    <rect x="1330" y="60" width="350" height="120" fill="#fff" stroke="#1a1a1a"/>
    <text x="1345" y="90" font-size="11" fill="#1a1a1a" font-weight="600">P2 — 마케팅 요소 보강</text>
    <text x="1345" y="110" font-size="10" fill="#333">• 사회적 증명 카드 추가</text>
    <text x="1345" y="128" font-size="10" fill="#333">• Hero에 30초 데모 영상</text>
    <text x="1345" y="146" font-size="10" fill="#333">• 우선순위 낮음 (MVP 이후)</text>

    <!-- W2: 대시보드 -->
    <rect x="0" y="180" width="280" height="120" fill="#fff" stroke="#1a1a1a" stroke-width="1"/>
    <text x="20" y="210" font-size="13" font-weight="600" fill="#1a1a1a">W2 대시보드</text>
    <text x="20" y="230" font-size="10" fill="#666">IA: 2.1.1, 2.1.2, 2.1.3</text>
    <text x="20" y="248" font-size="10" fill="#666">화면 ID: S-DASH</text>
    <text x="20" y="270" font-size="10" fill="#1a1a1a" font-weight="600">P0 (Main Hub)</text>

    <rect x="280" y="180" width="350" height="120" fill="#1a1a1a" stroke="#1a1a1a"/>
    <text x="295" y="210" font-size="11" fill="#fafaf7" font-weight="600">✓ 완전 일치</text>
    <text x="295" y="230" font-size="10" fill="#fafaf7">• 자산 위젯 (2.1.1) ✓</text>
    <text x="295" y="248" font-size="10" fill="#fafaf7">• 운영중 전략 (2.1.2) ✓</text>
    <text x="295" y="266" font-size="10" fill="#fafaf7">• 알림 피드 (2.1.3) ✓</text>
    <text x="295" y="284" font-size="10" fill="#fafaf7">• 사이드바 7-그룹 정확 ✓</text>

    <rect x="630" y="180" width="350" height="120" fill="#1a1a1a" stroke="#1a1a1a"/>
    <text x="645" y="210" font-size="11" fill="#fafaf7" font-weight="600">✓ 완전 일치</text>
    <text x="645" y="230" font-size="10" fill="#fafaf7">• Flow 1 종료점 ✓</text>
    <text x="645" y="248" font-size="10" fill="#fafaf7">• 사이드바로 모든 그룹 진입 ✓</text>
    <text x="645" y="266" font-size="10" fill="#fafaf7">• 빈 상태(2.2) 대응 ✓</text>

    <rect x="980" y="180" width="350" height="120" fill="#1a1a1a" fill-opacity="0.4" stroke="#1a1a1a"/>
    <text x="995" y="210" font-size="11" fill="#1a1a1a" font-weight="600">▲ 부분 일치</text>
    <text x="995" y="230" font-size="10" fill="#333">• D-001~D-014 명세 ✓</text>
    <text x="995" y="248" font-size="10" fill="#333">• KPI(MDD, 승률) 차트 옆 노출</text>
    <text x="995" y="266" font-size="10" fill="#333">  와이어프레임에 미반영</text>
    <text x="995" y="284" font-size="10" fill="#333">• 아이콘+라벨 동시 표시 필요</text>

    <rect x="1330" y="180" width="350" height="120" fill="#fff" stroke="#1a1a1a"/>
    <text x="1345" y="210" font-size="11" fill="#1a1a1a" font-weight="600">P1 — 접근성/정보 보강</text>
    <text x="1345" y="230" font-size="10" fill="#333">• 사이드바 아이콘 + 라벨</text>
    <text x="1345" y="248" font-size="10" fill="#333">• 차트 옆 KPI 4개 카드</text>
    <text x="1345" y="266" font-size="10" fill="#333">• 마지막 갱신 시각 표시</text>

    <!-- W3: GPT 전략 -->
    <rect x="0" y="300" width="280" height="120" fill="#fff" stroke="#1a1a1a" stroke-width="1"/>
    <text x="20" y="330" font-size="13" font-weight="600" fill="#1a1a1a">W3 GPT 전략</text>
    <text x="20" y="350" font-size="10" fill="#666">IA: 4.2.1, 4.2.2, 4.2.3</text>
    <text x="20" y="368" font-size="10" fill="#666">화면 ID: S-STRAT</text>
    <text x="20" y="390" font-size="10" fill="#1a1a1a" font-weight="600">P0 ★ Core Feature</text>

    <rect x="280" y="300" width="350" height="120" fill="#1a1a1a" stroke="#1a1a1a"/>
    <text x="295" y="330" font-size="11" fill="#fafaf7" font-weight="600">✓ 완전 일치</text>
    <text x="295" y="350" font-size="10" fill="#fafaf7">• 자연어 입력 (4.2.1) ✓</text>
    <text x="295" y="368" font-size="10" fill="#fafaf7">• GPT 추천 (4.2.2) ✓</text>
    <text x="295" y="386" font-size="10" fill="#fafaf7">• No-Code 블록 (4.2.3) ✓</text>
    <text x="295" y="404" font-size="10" fill="#fafaf7">• 좌-우 듀얼 인터페이스 ✓</text>

    <rect x="630" y="300" width="350" height="120" fill="#1a1a1a" fill-opacity="0.4" stroke="#1a1a1a"/>
    <text x="645" y="330" font-size="11" fill="#1a1a1a" font-weight="600">▲ 부분 일치</text>
    <text x="645" y="350" font-size="10" fill="#333">• Flow 1 Step 8~10 ✓</text>
    <text x="645" y="368" font-size="10" fill="#333">• "만족? Yes/No" 분기는</text>
    <text x="645" y="386" font-size="10" fill="#333">  UI상 표시 미흡</text>
    <text x="645" y="404" font-size="10" fill="#333">• 백테스팅 버튼 위치 OK</text>

    <rect x="980" y="300" width="350" height="120" fill="#1a1a1a" fill-opacity="0.4" stroke="#1a1a1a"/>
    <text x="995" y="330" font-size="11" fill="#1a1a1a" font-weight="600">▲ 부분 일치</text>
    <text x="995" y="350" font-size="10" fill="#333">• T-001~T-014 명세 14개 중</text>
    <text x="995" y="368" font-size="10" fill="#333">  로딩 인디케이터(T-004) 미반영</text>
    <text x="995" y="386" font-size="10" fill="#333">• 드래그 핸들(T-012) 시각화 부족</text>
    <text x="995" y="404" font-size="10" fill="#333">• 글자수 카운터 미표시</text>

    <rect x="1330" y="300" width="350" height="120" fill="#fff" stroke="#1a1a1a" stroke-width="2"/>
    <text x="1345" y="330" font-size="11" fill="#1a1a1a" font-weight="600">P0 — 즉시 보완</text>
    <text x="1345" y="350" font-size="10" fill="#333">• GPT 로딩 스피너 명시</text>
    <text x="1345" y="368" font-size="10" fill="#333">• 글자수 카운터 (500자 한도)</text>
    <text x="1345" y="386" font-size="10" fill="#333">• 블록 드래그 시각 피드백</text>
    <text x="1345" y="404" font-size="10" fill="#333">• 빈 블록 검증 알림</text>

    <!-- W4: 백테스팅 -->
    <rect x="0" y="420" width="280" height="120" fill="#fff" stroke="#1a1a1a" stroke-width="1"/>
    <text x="20" y="450" font-size="13" font-weight="600" fill="#1a1a1a">W4 백테스팅</text>
    <text x="20" y="470" font-size="10" fill="#666">IA: 4.3.2</text>
    <text x="20" y="488" font-size="10" fill="#666">화면 ID: S-BACKTEST</text>
    <text x="20" y="510" font-size="10" fill="#1a1a1a" font-weight="600">P0</text>

    <rect x="280" y="420" width="350" height="120" fill="#1a1a1a" stroke="#1a1a1a"/>
    <text x="295" y="450" font-size="11" fill="#fafaf7" font-weight="600">✓ 완전 일치</text>
    <text x="295" y="470" font-size="10" fill="#fafaf7">• 결과 리포트 (4.3.2) ✓</text>
    <text x="295" y="488" font-size="10" fill="#fafaf7">• KPI 4개 카드 ✓</text>
    <text x="295" y="506" font-size="10" fill="#fafaf7">• Equity Curve 차트 ✓</text>

    <rect x="630" y="420" width="350" height="120" fill="#1a1a1a" stroke="#1a1a1a"/>
    <text x="645" y="450" font-size="11" fill="#fafaf7" font-weight="600">✓ 완전 일치</text>
    <text x="645" y="470" font-size="10" fill="#fafaf7">• Flow 1 Step 11~12 ✓</text>
    <text x="645" y="488" font-size="10" fill="#fafaf7">• "전략 수정" 루프 백 ✓</text>
    <text x="645" y="506" font-size="10" fill="#fafaf7">• "배포" 정방향 진행 ✓</text>

    <rect x="980" y="420" width="350" height="120" fill="#1a1a1a" fill-opacity="0.4" stroke="#1a1a1a"/>
    <text x="995" y="450" font-size="11" fill="#1a1a1a" font-weight="600">▲ 부분 일치</text>
    <text x="995" y="470" font-size="10" fill="#333">• B-001~B-010 명세 ✓</text>
    <text x="995" y="488" font-size="10" fill="#333">• 벤치마크 비교선 누락</text>
    <text x="995" y="506" font-size="10" fill="#333">  (B-007에 시장 평균 라인)</text>
    <text x="995" y="524" font-size="10" fill="#333">• 무료 플랜 제한 UI 미반영</text>

    <rect x="1330" y="420" width="350" height="120" fill="#fff" stroke="#1a1a1a"/>
    <text x="1345" y="450" font-size="11" fill="#1a1a1a" font-weight="600">P1 — 비교 컨텍스트 추가</text>
    <text x="1345" y="470" font-size="10" fill="#333">• BTC 단순 보유 벤치마크선</text>
    <text x="1345" y="488" font-size="10" fill="#333">• "Pro 업그레이드" CTA 추가</text>
    <text x="1345" y="506" font-size="10" fill="#333">• MDD 우수 시 안내 문구</text>

    <!-- W5: API 연동 -->
    <rect x="0" y="540" width="280" height="120" fill="#fff" stroke="#1a1a1a" stroke-width="1"/>
    <text x="20" y="570" font-size="13" font-weight="600" fill="#1a1a1a">W5 API 연동</text>
    <text x="20" y="590" font-size="10" fill="#666">IA: 3.2.2, 3.2.3</text>
    <text x="20" y="608" font-size="10" fill="#666">화면 ID: S-APILINK</text>
    <text x="20" y="630" font-size="10" fill="#1a1a1a" font-weight="600">P0 (보안 중요)</text>

    <rect x="280" y="540" width="350" height="120" fill="#1a1a1a" stroke="#1a1a1a"/>
    <text x="295" y="570" font-size="11" fill="#fafaf7" font-weight="600">✓ 완전 일치</text>
    <text x="295" y="590" font-size="10" fill="#fafaf7">• API 키 입력 (3.2.2) ✓</text>
    <text x="295" y="608" font-size="10" fill="#fafaf7">• Step 인디케이터 1→2→3 ✓</text>
    <text x="295" y="626" font-size="10" fill="#fafaf7">• 권한 검증 진입점 (3.2.3) ✓</text>
    <text x="295" y="644" font-size="10" fill="#fafaf7">• 비수탁성 강조 박스 ✓</text>

    <rect x="630" y="540" width="350" height="120" fill="#1a1a1a" stroke="#1a1a1a"/>
    <text x="645" y="570" font-size="11" fill="#fafaf7" font-weight="600">✓ 완전 일치</text>
    <text x="645" y="590" font-size="10" fill="#fafaf7">• Flow 1 Step 6~7 ✓</text>
    <text x="645" y="608" font-size="10" fill="#fafaf7">• "이전" 버튼으로 Step 1 복귀 ✓</text>
    <text x="645" y="626" font-size="10" fill="#fafaf7">• 검증 실패 시 재입력 동선 ✓</text>

    <rect x="980" y="540" width="350" height="120" fill="#fff" stroke="#1a1a1a" stroke-width="2"/>
    <text x="995" y="570" font-size="11" fill="#1a1a1a" font-weight="600">✗ 미흡 / 누락</text>
    <text x="995" y="590" font-size="10" fill="#333">• A-007 "출금 권한 OFF 확인"</text>
    <text x="995" y="608" font-size="10" fill="#333">  체크박스 와이어프레임 누락 ★</text>
    <text x="995" y="626" font-size="10" fill="#333">• onPaste 즉시 마스킹 UX</text>
    <text x="995" y="644" font-size="10" fill="#333">  명시 부족</text>

    <rect x="1330" y="540" width="350" height="120" fill="#fff" stroke="#1a1a1a" stroke-width="2"/>
    <text x="1345" y="570" font-size="11" fill="#1a1a1a" font-weight="600">P0 — 보안 필수 ⚠️</text>
    <text x="1345" y="590" font-size="10" fill="#333">• "출금 권한 OFF" 체크박스</text>
    <text x="1345" y="608" font-size="10" fill="#333">  → 권한 검증 버튼 차단</text>
    <text x="1345" y="626" font-size="10" fill="#333">• 표시/숨김 토글 (3초 자동)</text>
    <text x="1345" y="644" font-size="10" fill="#333">• 페이스트 마스킹 인터랙션</text>

    <!-- W6: 예외 화면 -->
    <rect x="0" y="660" width="280" height="120" fill="#fff" stroke="#1a1a1a" stroke-width="1"/>
    <text x="20" y="690" font-size="13" font-weight="600" fill="#1a1a1a">W6 예외 화면 ★</text>
    <text x="20" y="710" font-size="10" fill="#666">IA: E.3</text>
    <text x="20" y="728" font-size="10" fill="#666">화면 ID: E-API</text>
    <text x="20" y="750" font-size="10" fill="#1a1a1a" font-weight="600">P0 (차별화 핵심)</text>

    <rect x="280" y="660" width="350" height="120" fill="#1a1a1a" stroke="#1a1a1a"/>
    <text x="295" y="690" font-size="11" fill="#fafaf7" font-weight="600">✓ 완전 일치</text>
    <text x="295" y="710" font-size="10" fill="#fafaf7">• 예외 화면 (E.3) ✓</text>
    <text x="295" y="728" font-size="10" fill="#fafaf7">• 사이드바 ⚠️ 마커 ✓</text>
    <text x="295" y="746" font-size="10" fill="#fafaf7">• Mission 02 CUT 5 의도 반영 ✓</text>

    <rect x="630" y="660" width="350" height="120" fill="#1a1a1a" stroke="#1a1a1a"/>
    <text x="645" y="690" font-size="11" fill="#fafaf7" font-weight="600">✓ 완전 일치</text>
    <text x="645" y="710" font-size="10" fill="#fafaf7">• Flow 2 Network 분기 ✓</text>
    <text x="645" y="728" font-size="10" fill="#fafaf7">• 4-Step 트래커로 진행 표시 ✓</text>
    <text x="645" y="746" font-size="10" fill="#fafaf7">• "대시보드로" 정상 복귀 ✓</text>

    <rect x="980" y="660" width="350" height="120" fill="#1a1a1a" fill-opacity="0.4" stroke="#1a1a1a"/>
    <text x="995" y="690" font-size="11" fill="#1a1a1a" font-weight="600">▲ 부분 일치</text>
    <text x="995" y="710" font-size="10" fill="#333">• E-001~E-010 명세 ✓</text>
    <text x="995" y="728" font-size="10" fill="#333">• 자동 5초 폴링(E-010) 시각화</text>
    <text x="995" y="746" font-size="10" fill="#333">  부족 (sub-second 갱신 표시)</text>
    <text x="995" y="764" font-size="10" fill="#333">• Auth/Maintenance 분기 누락</text>

    <rect x="1330" y="660" width="350" height="120" fill="#fff" stroke="#1a1a1a"/>
    <text x="1345" y="690" font-size="11" fill="#1a1a1a" font-weight="600">P1 — 분기 화면 추가</text>
    <text x="1345" y="710" font-size="10" fill="#333">• Auth/Maintenance 화면 분기</text>
    <text x="1345" y="728" font-size="10" fill="#333">• 재연결 실패 시 Critical 화면</text>
    <text x="1345" y="746" font-size="10" fill="#333">• Last updated 타임스탬프</text>

  </g>

  <!-- Summary bar -->
  <g transform="translate(60, 1060)">
    <rect width="1680" height="80" fill="#1a1a1a"/>

    <text x="30" y="32" font-size="10" fill="#fafaf7" font-family="'Noto Sans CJK KR', monospace" letter-spacing="1.5">SUMMARY</text>

    <text x="30" y="60" font-size="11" fill="#fafaf7">완전 일치 (OK)</text>
    <text x="180" y="60" font-size="20" fill="#fafaf7" font-weight="700">12</text>
    <text x="220" y="60" font-size="11" fill="#ccc">/ 18</text>

    <text x="320" y="60" font-size="11" fill="#fafaf7">부분 일치 (개선)</text>
    <text x="480" y="60" font-size="20" fill="#fafaf7" font-weight="700">5</text>
    <text x="500" y="60" font-size="11" fill="#ccc">/ 18</text>

    <text x="600" y="60" font-size="11" fill="#fafaf7">미흡 / 누락</text>
    <text x="720" y="60" font-size="20" fill="#fafaf7" font-weight="700">1</text>
    <text x="740" y="60" font-size="11" fill="#ccc">/ 18</text>

    <line x1="840" y1="20" x2="840" y2="60" stroke="#666" stroke-width="0.5"/>

    <text x="870" y="42" font-size="11" fill="#fafaf7">P0 즉시 보완 항목</text>
    <text x="1020" y="42" font-size="14" fill="#fafaf7" font-weight="700">3건</text>
    <text x="870" y="60" font-size="10" fill="#ccc">출금권한 체크박스 / GPT 로딩 / 페이스트 마스킹</text>

    <text x="1300" y="60" font-size="11" fill="#fafaf7" text-anchor="end">종합 평가: <tspan font-weight="700">94% 일치 · MVP 출시 가능</tspan></text>
  </g>

  <!-- Footer -->
  <line x1="60" y1="1170" x2="1740" y2="1170" stroke="#1a1a1a" stroke-width="1"/>
  <text x="60" y="1190" font-size="10" fill="#666" font-family="'Noto Sans CJK KR', monospace">REVIEW MATRIX · 6 SCREENS × 3 CRITERIA · 18 CELLS · 24 FEEDBACK ITEMS</text>
  <text x="1740" y="1190" font-size="10" fill="#666" text-anchor="end" font-family="'Noto Sans CJK KR', monospace">작성자: 이제혁 / PBL WK06</text>

</svg>
