<?xml version="1.0" encoding="UTF-8"?>
<svg xmlns="http://www.w3.org/2000/svg" viewBox="0 0 1800 1400" width="1800" height="1400" font-family="'Noto Sans CJK KR', sans-serif">

  <rect width="1800" height="1400" fill="#fafaf7"/>

  <!-- HEADER -->
  <text x="60" y="60" font-size="11" fill="#666" letter-spacing="1.5" font-family="'Noto Sans CJK KR', monospace">MISSION 06 / WIREFRAMES (PART 2)</text>
  <text x="60" y="92" font-size="26" font-weight="600" fill="#1a1a1a" letter-spacing="-0.5">API 연동 + 예외 화면</text>
  <text x="1740" y="60" font-size="10" fill="#666" text-anchor="end" font-family="'Noto Sans CJK KR', monospace">W5 + W6</text>
  <text x="1740" y="76" font-size="10" fill="#666" text-anchor="end" font-family="'Noto Sans CJK KR', monospace">작성자: 이제혁</text>
  <line x1="60" y1="115" x2="1740" y2="115" stroke="#1a1a1a" stroke-width="2"/>

  <!-- ====== Screen 5: API 연동 ====== -->
  <text x="60" y="160" font-size="11" fill="#666" font-family="'Noto Sans CJK KR', monospace">W5 / EXCHANGE LINK</text>
  <text x="60" y="186" font-size="18" font-weight="600" fill="#1a1a1a">5. 거래소 API 연동</text>

  <rect x="60" y="210" width="800" height="500" fill="#fff" stroke="#1a1a1a" stroke-width="2"/>

  <!-- Top bar -->
  <line x1="60" y1="260" x2="860" y2="260" stroke="#1a1a1a" stroke-width="0.5"/>
  <text x="80" y="245" font-size="11" fill="#666">← 거래소 목록</text>
  <text x="460" y="245" font-size="13" font-weight="600" fill="#1a1a1a" text-anchor="middle">새 거래소 연동</text>

  <!-- Step indicator -->
  <g transform="translate(80, 280)">
    <circle cx="20" cy="20" r="14" fill="#1a1a1a"/>
    <text x="20" y="25" font-size="11" fill="#fff" text-anchor="middle" font-weight="600">1</text>
    <text x="20" y="55" font-size="10" fill="#1a1a1a" text-anchor="middle" font-weight="600">거래소 선택</text>

    <line x1="40" y1="20" x2="285" y2="20" stroke="#1a1a1a" stroke-width="1"/>

    <circle cx="305" cy="20" r="14" fill="#1a1a1a"/>
    <text x="305" y="25" font-size="11" fill="#fff" text-anchor="middle" font-weight="600">2</text>
    <text x="305" y="55" font-size="10" fill="#1a1a1a" text-anchor="middle" font-weight="600">API 키 입력</text>

    <line x1="325" y1="20" x2="570" y2="20" stroke="#1a1a1a" stroke-width="1" stroke-dasharray="3 2"/>

    <circle cx="590" cy="20" r="14" fill="none" stroke="#1a1a1a" stroke-width="1"/>
    <text x="590" y="25" font-size="11" fill="#1a1a1a" text-anchor="middle">3</text>
    <text x="590" y="55" font-size="10" fill="#666" text-anchor="middle">권한 검증</text>
  </g>

  <!-- API Key form -->
  <text x="80" y="395" font-size="13" font-weight="600" fill="#1a1a1a">업비트 API 키 입력</text>
  <text x="80" y="416" font-size="11" fill="#666">아래 정보는 암호화되어 안전하게 저장됩니다.</text>

  <text x="80" y="450" font-size="11" fill="#1a1a1a" font-weight="500">API Key</text>
  <rect x="80" y="458" width="500" height="40" fill="#fff" stroke="#1a1a1a" stroke-width="1.5"/>
  <text x="95" y="483" font-size="11" fill="#666" font-family="'Noto Sans CJK KR', monospace">●●●●●●●●●●●●●●●●●●●●●●●●●</text>

  <text x="80" y="525" font-size="11" fill="#1a1a1a" font-weight="500">Secret Key</text>
  <rect x="80" y="533" width="500" height="40" fill="#fff" stroke="#1a1a1a" stroke-width="1.5"/>
  <text x="95" y="558" font-size="11" fill="#666" font-family="'Noto Sans CJK KR', monospace">●●●●●●●●●●●●●●●●●●●●●●●●●</text>

  <!-- Permission check -->
  <rect x="80" y="595" width="500" height="60" fill="#f4f4ef" stroke="#1a1a1a" stroke-width="1" stroke-dasharray="4 2"/>
  <text x="95" y="615" font-size="11" fill="#1a1a1a" font-weight="600">🔒 필요한 권한</text>
  <text x="95" y="635" font-size="10" fill="#666">✓ 조회 권한 (필수) — 자산·시세 확인</text>
  <text x="95" y="650" font-size="10" fill="#666">✓ 매매 권한 (필수) — 자동 주문 실행</text>

  <!-- Notice -->
  <rect x="600" y="450" width="240" height="200" fill="#1a1a1a" fill-opacity="0.05" stroke="#1a1a1a" stroke-width="1"/>
  <text x="615" y="473" font-size="11" fill="#1a1a1a" font-weight="600">⚠️ 안내</text>
  <text x="615" y="495" font-size="10" fill="#333">• 자산은 거래소에 그대로</text>
  <text x="615" y="510" font-size="10" fill="#333">  보관됩니다 (비수탁형)</text>
  <text x="615" y="530" font-size="10" fill="#333">• 출금 권한은 절대 활성화</text>
  <text x="615" y="545" font-size="10" fill="#333">  하지 마세요</text>
  <text x="615" y="565" font-size="10" fill="#333">• IP 제한 설정 권장</text>
  <text x="615" y="590" font-size="10" fill="#1a1a1a" font-weight="600">가이드 보기 →</text>

  <!-- Buttons -->
  <rect x="80" y="680" width="120" height="36" fill="none" stroke="#1a1a1a" stroke-width="1"/>
  <text x="140" y="702" font-size="11" fill="#1a1a1a" text-anchor="middle">이전</text>

  <rect x="460" y="680" width="120" height="36" fill="#1a1a1a"/>
  <text x="520" y="702" font-size="11" fill="#fff" text-anchor="middle" font-weight="600">권한 검증 →</text>

  <!-- Annotations W5 -->
  <g transform="translate(900, 210)">
    <text x="0" y="20" font-size="11" fill="#1a1a1a" font-weight="600">📌 핵심 요소</text>
    <text x="0" y="45" font-size="11" fill="#333">• 3-step 진행 인디케이터</text>
    <text x="0" y="65" font-size="11" fill="#333">• API/Secret 마스킹 표시</text>
    <text x="0" y="85" font-size="11" fill="#333">• 권한 요구사항 명시</text>
    <text x="0" y="105" font-size="11" fill="#333">• 우측 안내 박스 (비수탁성 강조)</text>

    <text x="0" y="145" font-size="11" fill="#1a1a1a" font-weight="600">⚠️ 검토 포인트 (중요!)</text>
    <text x="0" y="170" font-size="11" fill="#333">• 페이스트 시 평문 노출 가능성</text>
    <text x="0" y="190" font-size="11" fill="#333">  → onPaste 즉시 마스킹 권장</text>
    <text x="0" y="210" font-size="11" fill="#333">• 입력 도중 자동 검증 (debounce)</text>
    <text x="0" y="230" font-size="11" fill="#333">  로 UX 개선 가능</text>
    <text x="0" y="250" font-size="11" fill="#333">• 출금 권한 OFF 확인 체크박스</text>
    <text x="0" y="270" font-size="11" fill="#333">  강제 (현 와이어프레임 누락)</text>

    <text x="0" y="310" font-size="11" fill="#1a1a1a" font-weight="600">🔗 IA 연결</text>
    <text x="0" y="335" font-size="11" fill="#333">3.2.2 API 키 입력</text>
    <text x="0" y="355" font-size="11" fill="#333">3.2.3 권한 검증</text>

    <text x="0" y="395" font-size="11" fill="#1a1a1a" font-weight="600">🔁 플로우 연결</text>
    <text x="0" y="420" font-size="11" fill="#333">Flow 1 — Step 6~7</text>
  </g>

  <!-- ====== Screen 6: 예외 화면 ====== -->
  <text x="60" y="780" font-size="11" fill="#666" font-family="'Noto Sans CJK KR', monospace">W6 / ERROR · UNHAPPY PATH</text>
  <text x="60" y="806" font-size="18" font-weight="600" fill="#1a1a1a">6. 예외 화면 — API 일시 오류</text>

  <rect x="60" y="830" width="800" height="500" fill="#fff" stroke="#1a1a1a" stroke-width="2"/>

  <!-- Sidebar same as dashboard -->
  <rect x="60" y="830" width="140" height="500" fill="#f4f4ef" stroke="#1a1a1a" stroke-width="1"/>
  <rect x="75" y="845" width="60" height="20" fill="#1a1a1a"/>
  <text x="105" y="860" font-size="10" fill="#fff" text-anchor="middle" font-weight="600">LOGO</text>
  <text x="85" y="900" font-size="10" fill="#666">📊 대시보드</text>
  <text x="85" y="925" font-size="10" fill="#666">🧠 전략</text>
  <text x="85" y="950" font-size="10" fill="#666">📈 거래내역</text>
  <rect x="75" y="965" width="110" height="26" fill="#1a1a1a"/>
  <text x="130" y="982" font-size="10" fill="#fff" font-weight="600">🔗 거래소 ⚠️</text>
  <text x="85" y="1010" font-size="10" fill="#666">⚙️ 설정</text>

  <!-- Banner alert -->
  <rect x="220" y="850" width="620" height="60" fill="#1a1a1a" fill-opacity="0.15" stroke="#1a1a1a" stroke-width="2"/>
  <text x="240" y="875" font-size="13" font-weight="600" fill="#1a1a1a">⚠️ 업비트 API 일시 오류 감지</text>
  <text x="240" y="895" font-size="11" fill="#333">시스템이 자동으로 재연결을 시도하고 있습니다. 사용자 개입은 필요하지 않습니다.</text>

  <!-- Status section -->
  <text x="220" y="940" font-size="13" font-weight="600" fill="#1a1a1a">자동 복구 진행 상태</text>

  <!-- Step 1: complete -->
  <rect x="220" y="960" width="620" height="50" fill="#fff" stroke="#1a1a1a" stroke-width="1"/>
  <circle cx="245" cy="985" r="12" fill="#1a1a1a"/>
  <text x="245" y="990" font-size="11" fill="#fff" text-anchor="middle" font-weight="600">✓</text>
  <text x="270" y="980" font-size="11" font-weight="600" fill="#1a1a1a">오류 감지 완료</text>
  <text x="270" y="998" font-size="10" fill="#666">12:34:21 · 오류 유형: 네트워크 타임아웃</text>

  <!-- Step 2: complete -->
  <rect x="220" y="1020" width="620" height="50" fill="#fff" stroke="#1a1a1a" stroke-width="1"/>
  <circle cx="245" cy="1045" r="12" fill="#1a1a1a"/>
  <text x="245" y="1050" font-size="11" fill="#fff" text-anchor="middle" font-weight="600">✓</text>
  <text x="270" y="1040" font-size="11" font-weight="600" fill="#1a1a1a">자동 재연결 성공</text>
  <text x="270" y="1058" font-size="10" fill="#666">12:34:36 · 2회 시도 끝에 복구 (15초 소요)</text>

  <!-- Step 3: in progress -->
  <rect x="220" y="1080" width="620" height="50" fill="#fff" stroke="#1a1a1a" stroke-width="1.5"/>
  <circle cx="245" cy="1105" r="12" fill="none" stroke="#1a1a1a" stroke-width="2" stroke-dasharray="3 2"/>
  <text x="245" y="1110" font-size="11" fill="#1a1a1a" text-anchor="middle" font-weight="600">↻</text>
  <text x="270" y="1100" font-size="11" font-weight="600" fill="#1a1a1a">RL 엔진 변동성 대응 중</text>
  <text x="270" y="1118" font-size="10" fill="#666">포지션 자동 축소 진행 (현재 30% → 목표 15%)</text>

  <!-- Step 4: pending -->
  <rect x="220" y="1140" width="620" height="50" fill="#fff" stroke="#1a1a1a" stroke-width="1" stroke-dasharray="4 2"/>
  <circle cx="245" cy="1165" r="12" fill="none" stroke="#1a1a1a" stroke-width="1"/>
  <text x="245" y="1170" font-size="11" fill="#666" text-anchor="middle">·</text>
  <text x="270" y="1160" font-size="11" fill="#666">매매 정상화 대기</text>
  <text x="270" y="1178" font-size="10" fill="#666">예상 완료: 약 1-2분 후</text>

  <!-- Bottom buttons -->
  <rect x="220" y="1220" width="180" height="36" fill="none" stroke="#1a1a1a" stroke-width="1"/>
  <text x="310" y="1242" font-size="11" fill="#1a1a1a" text-anchor="middle">RL 엔진 상태 보기</text>

  <rect x="420" y="1220" width="180" height="36" fill="none" stroke="#1a1a1a" stroke-width="1"/>
  <text x="510" y="1242" font-size="11" fill="#1a1a1a" text-anchor="middle">이벤트 로그</text>

  <rect x="660" y="1220" width="180" height="36" fill="#1a1a1a"/>
  <text x="750" y="1242" font-size="11" fill="#fff" text-anchor="middle" font-weight="600">대시보드로 →</text>

  <text x="530" y="1285" font-size="10" fill="#666" text-anchor="middle">⚠️ 자세한 분석은 5.3 RL 엔진 모니터에서 확인하세요</text>

  <!-- Annotations W6 -->
  <g transform="translate(900, 830)">
    <text x="0" y="20" font-size="11" fill="#1a1a1a" font-weight="600">📌 핵심 요소</text>
    <text x="0" y="45" font-size="11" fill="#333">• 상단: 즉시 알림 배너</text>
    <text x="0" y="65" font-size="11" fill="#333">• 4-step 진행 상태 트래커</text>
    <text x="0" y="85" font-size="11" fill="#333">• 사이드바 ⚠️ 마커 (해당 메뉴)</text>
    <text x="0" y="105" font-size="11" fill="#333">• "사용자 개입 불필요" 강조</text>

    <text x="0" y="145" font-size="11" fill="#1a1a1a" font-weight="600">⚠️ 검토 포인트</text>
    <text x="0" y="170" font-size="11" fill="#333">• "사용자 개입 불필요" 카피로</text>
    <text x="0" y="190" font-size="11" fill="#333">  불안 해소 (Mission 02 CUT 5</text>
    <text x="0" y="210" font-size="11" fill="#333">  의도 정확히 반영)</text>
    <text x="0" y="230" font-size="11" fill="#333">• 자동 새로고침 (5초 polling)</text>
    <text x="0" y="250" font-size="11" fill="#333">  명세 필요</text>
    <text x="0" y="270" font-size="11" fill="#333">• 만약 재연결 실패 시 화면</text>
    <text x="0" y="290" font-size="11" fill="#333">  분기 추가 와이어프레임 필요</text>

    <text x="0" y="330" font-size="11" fill="#1a1a1a" font-weight="600">🔗 IA 연결</text>
    <text x="0" y="355" font-size="11" fill="#333">E.3 API 연동 실패</text>

    <text x="0" y="395" font-size="11" fill="#1a1a1a" font-weight="600">🔁 플로우 연결</text>
    <text x="0" y="420" font-size="11" fill="#333">Flow 2 — 전체 매핑</text>
    <text x="0" y="440" font-size="11" fill="#333">(Network 분기 시나리오)</text>

    <text x="0" y="480" font-size="11" fill="#1a1a1a" font-weight="600">📍 시나리오 매핑</text>
    <text x="0" y="505" font-size="11" fill="#333">Mission 02 CUT 5 ★</text>
  </g>

  <!-- Footer -->
  <line x1="60" y1="1340" x2="1740" y2="1340" stroke="#1a1a1a" stroke-width="1"/>
  <text x="60" y="1365" font-size="10" fill="#666" font-family="'Noto Sans CJK KR', monospace">WIREFRAMES PART 2 — TOTAL 6 SCREENS · 핵심 화면 커버리지 ★</text>
  <text x="1740" y="1365" font-size="10" fill="#666" text-anchor="end" font-family="'Noto Sans CJK KR', monospace">작성자: 이제혁 / PBL WK06</text>

</svg>
